<?xml version="1.0" encoding="UTF-8"?>
<svg id="a" data-name="Layer 1" xmlns="http://www.w3.org/2000/svg" viewBox="0 0 567.35 156.16">
  <g id="b" data-name="icon">
    <path d="M12.27,28.75v.65h101.03c-9.89-9.3-25.74-15.48-37.56-22.2-3.44-1.96-9.48-7.14-13.6-6.53-4.86.72-10.65,5.68-14.89,8.11-11.57,6.61-22.91,14.35-34.98,19.98M.61,30.03v.64l10.62,9.74.39,11.63v24.61l.67,12.56,12.93,7.52,10.99-36.91,3.45-14-9.26-4.66L.61,30.03M113.95,34.58l-2.59,10.36h-39.5c-3.55,0-11.58-1.5-14.53.67-3.65,2.68-4.87,13.85-6.18,18.12-5.25,17.06-12.96,35.47-15.56,53.1h.65c1.29-2.43,2.92-7.12,5.43-8.5,1.95-1.07,4.62,1.08,6.23,2.03,3.81,2.23,11.63,8.92,16.19,7.7,4-1.07,8.07-4.46,11.66-6.5l25.26-14.53c3.64-2.09,10.71-4.6,12.93-8.26,1.93-3.17.67-9.77.67-13.39v-27.84c0-3.99.91-9.26-.65-12.95M106.83,57.88c-.48,3.59-1.75,12.69-4.87,14.88-2.52,1.78-8.35.67-11.32.67h-29.79c.48-3.59,1.74-12.69,4.86-14.88,2.53-1.78,8.36-.67,11.33-.67h29.79" fill="#fff"/>
  </g>
  <g id="c" data-name="FCTV">
    <path d="M202.21,37.68h-39.84v18.27h34.88v13.8h-34.88v33.31h-16.49V23.72h56.33v13.96Z" fill="#fff"/>
    <path d="M269.38,97.13c-5.93,5.43-13.51,8.14-22.75,8.14-11.43,0-20.41-3.67-26.95-11-6.54-7.37-9.81-17.47-9.81-30.29,0-13.87,3.72-24.56,11.16-32.07,6.47-6.54,14.7-9.81,24.69-9.81,13.37,0,23.14,4.38,29.32,13.15,3.41,4.92,5.25,9.86,5.5,14.82h-16.6c-1.08-3.81-2.46-6.68-4.15-8.62-3.02-3.45-7.49-5.17-13.42-5.17s-10.8,2.44-14.28,7.3c-3.49,4.87-5.23,11.76-5.23,20.67s1.84,15.59,5.52,20.03c3.68,4.44,8.36,6.66,14.04,6.66s10.26-1.9,13.31-5.71c1.69-2.05,3.09-5.12,4.2-9.22h16.44c-1.44,8.66-5.1,15.71-11,21.13Z" fill="#fff"/>
    <path d="M350.78,23.61v14.07h-23.77v65.39h-16.71V37.68h-23.88v-14.07h64.36Z" fill="#fff"/>
    <path d="M354.6,23.61h17.74l17.25,60.32,17.41-60.32h17.25l-27.11,79.46h-15.69l-26.84-79.46Z" fill="#fff"/>
  </g>
  <g id="d" data-name="number">
    <path d="M446.37,39.48c-1.74,2.32-2.57,5.42-2.5,9.3h-14.46c.14-3.91.82-7.63,2.01-11.15,1.27-3.08,3.26-5.93,5.98-8.54,2.03-1.85,4.44-3.26,7.23-4.24,2.79-.98,6.22-1.47,10.28-1.47,7.54,0,13.62,1.95,18.24,5.84,4.62,3.9,6.93,9.13,6.93,15.69,0,4.64-1.38,8.55-4.13,11.74-1.74,1.99-3.55,3.35-5.44,4.08,1.41,0,3.44,1.21,6.09,3.64,3.95,3.66,5.93,8.66,5.93,15.01,0,6.67-2.31,12.53-6.93,17.59-4.62,5.06-11.46,7.58-20.53,7.58-11.16,0-18.92-3.64-23.27-10.93-2.28-3.88-3.55-8.95-3.81-15.22h15.22c0,3.15.51,5.76,1.52,7.83,1.88,3.81,5.31,5.71,10.28,5.71,3.04,0,5.7-1.04,7.96-3.13,2.26-2.08,3.4-5.08,3.4-9,0-5.18-2.1-8.64-6.31-10.38-2.39-.98-6.16-1.47-11.31-1.47v-11.09c5.04-.07,8.55-.56,10.55-1.47,3.44-1.52,5.17-4.6,5.17-9.24,0-3.01-.88-5.45-2.64-7.34-1.76-1.88-4.23-2.83-7.42-2.83-3.66,0-6.34,1.16-8.05,3.48Z" fill="#ffbd0f"/>
    <path d="M508.3,39.48c-1.74,2.32-2.57,5.42-2.5,9.3h-14.46c.14-3.91.82-7.63,2.01-11.15,1.27-3.08,3.26-5.93,5.98-8.54,2.03-1.85,4.44-3.26,7.23-4.24,2.79-.98,6.22-1.47,10.28-1.47,7.54,0,13.62,1.95,18.24,5.84,4.62,3.9,6.93,9.13,6.93,15.69,0,4.64-1.38,8.55-4.13,11.74-1.74,1.99-3.55,3.35-5.44,4.08,1.41,0,3.44,1.21,6.09,3.64,3.95,3.66,5.93,8.66,5.93,15.01,0,6.67-2.31,12.53-6.93,17.59-4.62,5.06-11.46,7.58-20.53,7.58-11.16,0-18.92-3.64-23.27-10.93-2.28-3.88-3.55-8.95-3.81-15.22h15.22c0,3.15.51,5.76,1.52,7.83,1.88,3.81,5.31,5.71,10.28,5.71,3.04,0,5.7-1.04,7.96-3.13,2.26-2.08,3.4-5.08,3.4-9,0-5.18-2.1-8.64-6.31-10.38-2.39-.98-6.16-1.47-11.31-1.47v-11.09c5.04-.07,8.55-.56,10.55-1.47,3.44-1.52,5.17-4.6,5.17-9.24,0-3.01-.88-5.45-2.64-7.34-1.76-1.88-4.23-2.83-7.42-2.83-3.66,0-6.34,1.16-8.05,3.48Z" fill="#ffbd0f"/>
  </g>
</svg>